<svg xmlns="http://www.w3.org/2000/svg" version="1.1" xmlns:xlink="http://www.w3.org/1999/xlink" xmlns:svgjs="http://svgjs.dev/svgjs" width="1440" height="560" preserveAspectRatio="none" viewBox="0 0 1440 560"><g mask="url(&quot;#SvgjsMask1008&quot;)" fill="none"><rect width="1440" height="560" x="0" y="0" fill="rgba(243, 243, 243, 1)"></rect><path d="M110.45 46.14L175.41 83.64L175.41 158.64L110.45 196.14L45.5 158.64L45.5 83.64zM175.41 158.64L240.36 196.14L240.36 271.14L175.41 308.64L110.45 271.14L110.45 196.14zM240.36 271.14L305.31 308.64L305.31 383.64L240.36 421.14L175.41 383.64L175.41 308.64zM240.36 496.14L305.31 533.64L305.31 608.64L240.36 646.14L175.41 608.64L175.41 533.64zM305.31 158.64L370.27 196.14L370.27 271.14L305.31 308.64L240.36 271.14L240.36 196.14zM435.22 -66.36L500.18 -28.86L500.18 46.14L435.22 83.64L370.27 46.14L370.27 -28.86zM500.18 46.14L565.13 83.64L565.13 158.64L500.18 196.14L435.22 158.64L435.22 83.64zM630.08 46.14L695.04 83.64L695.04 158.64L630.08 196.14L565.13 158.64L565.13 83.64zM759.99 46.14L824.95 83.64L824.95 158.64L759.99 196.14L695.04 158.64L695.04 83.64zM695.04 158.64L759.99 196.14L759.99 271.14L695.04 308.64L630.08 271.14L630.08 196.14zM759.99 271.14L824.95 308.64L824.95 383.64L759.99 421.14L695.04 383.64L695.04 308.64zM695.04 383.64L759.99 421.14L759.99 496.14L695.04 533.64L630.08 496.14L630.08 421.14zM824.94 -66.36L889.9 -28.86L889.9 46.14L824.94 83.64L759.99 46.14L759.99 -28.86zM889.9 496.14L954.85 533.64L954.85 608.64L889.9 646.14L824.94 608.64L824.94 533.64zM954.85 158.64L1019.81 196.14L1019.81 271.14L954.85 308.64L889.9 271.14L889.9 196.14zM1019.81 496.14L1084.76 533.64L1084.76 608.64L1019.81 646.14L954.85 608.64L954.85 533.64zM1084.76 -66.36L1149.71 -28.86L1149.71 46.14L1084.76 83.64L1019.81 46.14L1019.81 -28.86zM1084.76 158.64L1149.71 196.14L1149.71 271.14L1084.76 308.64L1019.81 271.14L1019.81 196.14zM1149.71 496.14L1214.67 533.64L1214.67 608.64L1149.71 646.14L1084.76 608.64L1084.76 533.64zM1214.67 -66.36L1279.62 -28.86L1279.62 46.14L1214.67 83.64L1149.71 46.14L1149.71 -28.86zM1279.62 46.14L1344.57 83.64L1344.57 158.64L1279.62 196.14L1214.67 158.64L1214.67 83.64zM1214.67 158.64L1279.62 196.14L1279.62 271.14L1214.67 308.64L1149.71 271.14L1149.71 196.14zM1279.62 271.14L1344.57 308.64L1344.57 383.64L1279.62 421.14L1214.67 383.64L1214.67 308.64zM1279.62 496.14L1344.57 533.64L1344.57 608.64L1279.62 646.14L1214.67 608.64L1214.67 533.64zM1409.53 46.14L1474.48 83.64L1474.48 158.64L1409.53 196.14L1344.58 158.64L1344.58 83.64zM1344.58 158.64L1409.53 196.14L1409.53 271.14L1344.58 308.64L1279.62 271.14L1279.62 196.14zM1344.58 383.64L1409.53 421.14L1409.53 496.14L1344.58 533.64L1279.62 496.14L1279.62 421.14z" stroke="rgba(146, 146, 146, 0.2)" stroke-width="2"></path><path d="M102.95 46.14 a7.5 7.5 0 1 0 15 0 a7.5 7.5 0 1 0 -15 0zM167.91 83.64 a7.5 7.5 0 1 0 15 0 a7.5 7.5 0 1 0 -15 0zM167.91 158.64 a7.5 7.5 0 1 0 15 0 a7.5 7.5 0 1 0 -15 0zM102.95 196.14 a7.5 7.5 0 1 0 15 0 a7.5 7.5 0 1 0 -15 0zM38 158.64 a7.5 7.5 0 1 0 15 0 a7.5 7.5 0 1 0 -15 0zM38 83.64 a7.5 7.5 0 1 0 15 0 a7.5 7.5 0 1 0 -15 0zM232.86 196.14 a7.5 7.5 0 1 0 15 0 a7.5 7.5 0 1 0 -15 0zM232.86 271.14 a7.5 7.5 0 1 0 15 0 a7.5 7.5 0 1 0 -15 0zM167.91 308.64 a7.5 7.5 0 1 0 15 0 a7.5 7.5 0 1 0 -15 0zM102.95 271.14 a7.5 7.5 0 1 0 15 0 a7.5 7.5 0 1 0 -15 0zM297.81 308.64 a7.5 7.5 0 1 0 15 0 a7.5 7.5 0 1 0 -15 0zM297.81 383.64 a7.5 7.5 0 1 0 15 0 a7.5 7.5 0 1 0 -15 0zM232.86 421.14 a7.5 7.5 0 1 0 15 0 a7.5 7.5 0 1 0 -15 0zM167.91 383.64 a7.5 7.5 0 1 0 15 0 a7.5 7.5 0 1 0 -15 0zM232.86 496.14 a7.5 7.5 0 1 0 15 0 a7.5 7.5 0 1 0 -15 0zM297.81 533.64 a7.5 7.5 0 1 0 15 0 a7.5 7.5 0 1 0 -15 0zM297.81 608.64 a7.5 7.5 0 1 0 15 0 a7.5 7.5 0 1 0 -15 0zM232.86 646.14 a7.5 7.5 0 1 0 15 0 a7.5 7.5 0 1 0 -15 0zM167.91 608.64 a7.5 7.5 0 1 0 15 0 a7.5 7.5 0 1 0 -15 0zM167.91 533.64 a7.5 7.5 0 1 0 15 0 a7.5 7.5 0 1 0 -15 0zM297.81 158.64 a7.5 7.5 0 1 0 15 0 a7.5 7.5 0 1 0 -15 0zM362.77 196.14 a7.5 7.5 0 1 0 15 0 a7.5 7.5 0 1 0 -15 0zM362.77 271.14 a7.5 7.5 0 1 0 15 0 a7.5 7.5 0 1 0 -15 0zM427.72 -66.36 a7.5 7.5 0 1 0 15 0 a7.5 7.5 0 1 0 -15 0zM492.68 -28.86 a7.5 7.5 0 1 0 15 0 a7.5 7.5 0 1 0 -15 0zM492.68 46.14 a7.5 7.5 0 1 0 15 0 a7.5 7.5 0 1 0 -15 0zM427.72 83.64 a7.5 7.5 0 1 0 15 0 a7.5 7.5 0 1 0 -15 0zM362.77 46.14 a7.5 7.5 0 1 0 15 0 a7.5 7.5 0 1 0 -15 0zM362.77 -28.86 a7.5 7.5 0 1 0 15 0 a7.5 7.5 0 1 0 -15 0zM557.63 83.64 a7.5 7.5 0 1 0 15 0 a7.5 7.5 0 1 0 -15 0zM557.63 158.64 a7.5 7.5 0 1 0 15 0 a7.5 7.5 0 1 0 -15 0zM492.68 196.14 a7.5 7.5 0 1 0 15 0 a7.5 7.5 0 1 0 -15 0zM427.72 158.64 a7.5 7.5 0 1 0 15 0 a7.5 7.5 0 1 0 -15 0zM622.58 46.14 a7.5 7.5 0 1 0 15 0 a7.5 7.5 0 1 0 -15 0zM687.54 83.64 a7.5 7.5 0 1 0 15 0 a7.5 7.5 0 1 0 -15 0zM687.54 158.64 a7.5 7.5 0 1 0 15 0 a7.5 7.5 0 1 0 -15 0zM622.58 196.14 a7.5 7.5 0 1 0 15 0 a7.5 7.5 0 1 0 -15 0zM752.49 46.14 a7.5 7.5 0 1 0 15 0 a7.5 7.5 0 1 0 -15 0zM817.45 83.64 a7.5 7.5 0 1 0 15 0 a7.5 7.5 0 1 0 -15 0zM817.45 158.64 a7.5 7.5 0 1 0 15 0 a7.5 7.5 0 1 0 -15 0zM752.49 196.14 a7.5 7.5 0 1 0 15 0 a7.5 7.5 0 1 0 -15 0zM752.49 271.14 a7.5 7.5 0 1 0 15 0 a7.5 7.5 0 1 0 -15 0zM687.54 308.64 a7.5 7.5 0 1 0 15 0 a7.5 7.5 0 1 0 -15 0zM622.58 271.14 a7.5 7.5 0 1 0 15 0 a7.5 7.5 0 1 0 -15 0zM817.45 308.64 a7.5 7.5 0 1 0 15 0 a7.5 7.5 0 1 0 -15 0zM817.45 383.64 a7.5 7.5 0 1 0 15 0 a7.5 7.5 0 1 0 -15 0zM752.49 421.14 a7.5 7.5 0 1 0 15 0 a7.5 7.5 0 1 0 -15 0zM687.54 383.64 a7.5 7.5 0 1 0 15 0 a7.5 7.5 0 1 0 -15 0zM752.49 496.14 a7.5 7.5 0 1 0 15 0 a7.5 7.5 0 1 0 -15 0zM687.54 533.64 a7.5 7.5 0 1 0 15 0 a7.5 7.5 0 1 0 -15 0zM622.58 496.14 a7.5 7.5 0 1 0 15 0 a7.5 7.5 0 1 0 -15 0zM622.58 421.14 a7.5 7.5 0 1 0 15 0 a7.5 7.5 0 1 0 -15 0zM817.44 -66.36 a7.5 7.5 0 1 0 15 0 a7.5 7.5 0 1 0 -15 0zM882.4 -28.86 a7.5 7.5 0 1 0 15 0 a7.5 7.5 0 1 0 -15 0zM882.4 46.14 a7.5 7.5 0 1 0 15 0 a7.5 7.5 0 1 0 -15 0zM817.44 83.64 a7.5 7.5 0 1 0 15 0 a7.5 7.5 0 1 0 -15 0zM752.49 -28.86 a7.5 7.5 0 1 0 15 0 a7.5 7.5 0 1 0 -15 0zM882.4 496.14 a7.5 7.5 0 1 0 15 0 a7.5 7.5 0 1 0 -15 0zM947.35 533.64 a7.5 7.5 0 1 0 15 0 a7.5 7.5 0 1 0 -15 0zM947.35 608.64 a7.5 7.5 0 1 0 15 0 a7.5 7.5 0 1 0 -15 0zM882.4 646.14 a7.5 7.5 0 1 0 15 0 a7.5 7.5 0 1 0 -15 0zM817.44 608.64 a7.5 7.5 0 1 0 15 0 a7.5 7.5 0 1 0 -15 0zM817.44 533.64 a7.5 7.5 0 1 0 15 0 a7.5 7.5 0 1 0 -15 0zM947.35 158.64 a7.5 7.5 0 1 0 15 0 a7.5 7.5 0 1 0 -15 0zM1012.31 196.14 a7.5 7.5 0 1 0 15 0 a7.5 7.5 0 1 0 -15 0zM1012.31 271.14 a7.5 7.5 0 1 0 15 0 a7.5 7.5 0 1 0 -15 0zM947.35 308.64 a7.5 7.5 0 1 0 15 0 a7.5 7.5 0 1 0 -15 0zM882.4 271.14 a7.5 7.5 0 1 0 15 0 a7.5 7.5 0 1 0 -15 0zM882.4 196.14 a7.5 7.5 0 1 0 15 0 a7.5 7.5 0 1 0 -15 0zM1012.31 496.14 a7.5 7.5 0 1 0 15 0 a7.5 7.5 0 1 0 -15 0zM1077.26 533.64 a7.5 7.5 0 1 0 15 0 a7.5 7.5 0 1 0 -15 0zM1077.26 608.64 a7.5 7.5 0 1 0 15 0 a7.5 7.5 0 1 0 -15 0zM1012.31 646.14 a7.5 7.5 0 1 0 15 0 a7.5 7.5 0 1 0 -15 0zM1077.26 -66.36 a7.5 7.5 0 1 0 15 0 a7.5 7.5 0 1 0 -15 0zM1142.21 -28.86 a7.5 7.5 0 1 0 15 0 a7.5 7.5 0 1 0 -15 0zM1142.21 46.14 a7.5 7.5 0 1 0 15 0 a7.5 7.5 0 1 0 -15 0zM1077.26 83.64 a7.5 7.5 0 1 0 15 0 a7.5 7.5 0 1 0 -15 0zM1012.31 46.14 a7.5 7.5 0 1 0 15 0 a7.5 7.5 0 1 0 -15 0zM1012.31 -28.86 a7.5 7.5 0 1 0 15 0 a7.5 7.5 0 1 0 -15 0zM1077.26 158.64 a7.5 7.5 0 1 0 15 0 a7.5 7.5 0 1 0 -15 0zM1142.21 196.14 a7.5 7.5 0 1 0 15 0 a7.5 7.5 0 1 0 -15 0zM1142.21 271.14 a7.5 7.5 0 1 0 15 0 a7.5 7.5 0 1 0 -15 0zM1077.26 308.64 a7.5 7.5 0 1 0 15 0 a7.5 7.5 0 1 0 -15 0zM1142.21 496.14 a7.5 7.5 0 1 0 15 0 a7.5 7.5 0 1 0 -15 0zM1207.17 533.64 a7.5 7.5 0 1 0 15 0 a7.5 7.5 0 1 0 -15 0zM1207.17 608.64 a7.5 7.5 0 1 0 15 0 a7.5 7.5 0 1 0 -15 0zM1142.21 646.14 a7.5 7.5 0 1 0 15 0 a7.5 7.5 0 1 0 -15 0zM1207.17 -66.36 a7.5 7.5 0 1 0 15 0 a7.5 7.5 0 1 0 -15 0zM1272.12 -28.86 a7.5 7.5 0 1 0 15 0 a7.5 7.5 0 1 0 -15 0zM1272.12 46.14 a7.5 7.5 0 1 0 15 0 a7.5 7.5 0 1 0 -15 0zM1207.17 83.64 a7.5 7.5 0 1 0 15 0 a7.5 7.5 0 1 0 -15 0zM1337.07 83.64 a7.5 7.5 0 1 0 15 0 a7.5 7.5 0 1 0 -15 0zM1337.07 158.64 a7.5 7.5 0 1 0 15 0 a7.5 7.5 0 1 0 -15 0zM1272.12 196.14 a7.5 7.5 0 1 0 15 0 a7.5 7.5 0 1 0 -15 0zM1207.17 158.64 a7.5 7.5 0 1 0 15 0 a7.5 7.5 0 1 0 -15 0zM1272.12 271.14 a7.5 7.5 0 1 0 15 0 a7.5 7.5 0 1 0 -15 0zM1207.17 308.64 a7.5 7.5 0 1 0 15 0 a7.5 7.5 0 1 0 -15 0zM1337.07 308.64 a7.5 7.5 0 1 0 15 0 a7.5 7.5 0 1 0 -15 0zM1337.07 383.64 a7.5 7.5 0 1 0 15 0 a7.5 7.5 0 1 0 -15 0zM1272.12 421.14 a7.5 7.5 0 1 0 15 0 a7.5 7.5 0 1 0 -15 0zM1207.17 383.64 a7.5 7.5 0 1 0 15 0 a7.5 7.5 0 1 0 -15 0zM1272.12 496.14 a7.5 7.5 0 1 0 15 0 a7.5 7.5 0 1 0 -15 0zM1337.07 533.64 a7.5 7.5 0 1 0 15 0 a7.5 7.5 0 1 0 -15 0zM1337.07 608.64 a7.5 7.5 0 1 0 15 0 a7.5 7.5 0 1 0 -15 0zM1272.12 646.14 a7.5 7.5 0 1 0 15 0 a7.5 7.5 0 1 0 -15 0zM1402.03 46.14 a7.5 7.5 0 1 0 15 0 a7.5 7.5 0 1 0 -15 0zM1466.98 83.64 a7.5 7.5 0 1 0 15 0 a7.5 7.5 0 1 0 -15 0zM1466.98 158.64 a7.5 7.5 0 1 0 15 0 a7.5 7.5 0 1 0 -15 0zM1402.03 196.14 a7.5 7.5 0 1 0 15 0 a7.5 7.5 0 1 0 -15 0zM1337.08 158.64 a7.5 7.5 0 1 0 15 0 a7.5 7.5 0 1 0 -15 0zM1337.08 83.64 a7.5 7.5 0 1 0 15 0 a7.5 7.5 0 1 0 -15 0zM1402.03 271.14 a7.5 7.5 0 1 0 15 0 a7.5 7.5 0 1 0 -15 0zM1337.08 308.64 a7.5 7.5 0 1 0 15 0 a7.5 7.5 0 1 0 -15 0zM1337.08 383.64 a7.5 7.5 0 1 0 15 0 a7.5 7.5 0 1 0 -15 0zM1402.03 421.14 a7.5 7.5 0 1 0 15 0 a7.5 7.5 0 1 0 -15 0zM1402.03 496.14 a7.5 7.5 0 1 0 15 0 a7.5 7.5 0 1 0 -15 0zM1337.08 533.64 a7.5 7.5 0 1 0 15 0 a7.5 7.5 0 1 0 -15 0z" fill="rgba(146, 146, 146, 0.2)"></path><path d="M82.13 353.53L125.44 378.53L125.44 428.53L82.13 453.53L38.83 428.53L38.83 378.53zM255.34 203.53L298.64 228.53L298.64 278.53L255.34 303.53L212.04 278.53L212.04 228.53zM341.95 203.53L385.25 228.53L385.25 278.53L341.95 303.53L298.64 278.53L298.64 228.53zM341.95 353.53L385.25 378.53L385.25 428.53L341.95 453.53L298.64 428.53L298.64 378.53zM428.55 203.53L471.86 228.53L471.86 278.53L428.55 303.53L385.25 278.53L385.25 228.53zM428.55 353.53L471.86 378.53L471.86 428.53L428.55 453.53L385.25 428.53L385.25 378.53zM558.46 -21.47L601.76 3.53L601.76 53.53L558.46 78.53L515.16 53.53L515.16 3.53zM774.97 353.53L818.28 378.53L818.28 428.53L774.97 453.53L731.67 428.53L731.67 378.53zM818.28 -21.47L861.58 3.53L861.58 53.53L818.28 78.53L774.97 53.53L774.97 3.53zM1034.79 353.53L1078.09 378.53L1078.09 428.53L1034.79 453.53L991.49 428.53L991.49 378.53zM991.49 428.53L1034.79 453.53L1034.79 503.53L991.49 528.53L948.18 503.53L948.18 453.53zM1078.09 -21.47L1121.39 3.53L1121.39 53.53L1078.09 78.53L1034.79 53.53L1034.79 3.53zM1121.39 53.53L1164.69 78.53L1164.69 128.53L1121.39 153.53L1078.09 128.53L1078.09 78.53zM1078.09 128.53L1121.39 153.53L1121.39 203.53L1078.09 228.53L1034.79 203.53L1034.79 153.53zM1121.39 203.53L1164.69 228.53L1164.69 278.53L1121.39 303.53L1078.09 278.53L1078.09 228.53zM1121.39 503.53L1164.69 528.53L1164.69 578.53L1121.39 603.53L1078.09 578.53L1078.09 528.53zM1208 203.53L1251.3 228.53L1251.3 278.53L1208 303.53L1164.69 278.53L1164.69 228.53zM1294.6 53.53L1337.9 78.53L1337.9 128.53L1294.6 153.53L1251.3 128.53L1251.3 78.53zM1337.9 128.53L1381.21 153.53L1381.21 203.53L1337.9 228.53L1294.6 203.53L1294.6 153.53zM1381.21 353.53L1424.51 378.53L1424.51 428.53L1381.21 453.53L1337.9 428.53L1337.9 378.53zM1424.51 128.53L1467.81 153.53L1467.81 203.53L1424.51 228.53L1381.21 203.53L1381.21 153.53z" stroke="rgba(161, 161, 161, 0.41)" stroke-width="2"></path></g><defs><mask id="SvgjsMask1008"><rect width="1440" height="560" fill="#ffffff"></rect></mask></defs></svg>